PathFileType	3	(X/Y/Z)	uphill_walking_calibrated.trc																																																																												
DataRate	CameraRate	NumFrames	NumMarkers	Units	OrigDataRate	OrigDataStartFrame	OrigNumFrames																																																																								
100	100	7	26	mm	100	2908	556																																																																								
Frame#	Time	RAcromium			LAcromium			C7			Clavicle			VSacral			RASIS			LASIS			RHip			LHip			RKneeLat			RKneeMed			LKneeMed			LKneeLat			LShankFront			RShankFront			RAnkleLat			RAnkleMed			LAnkleMed			LAnkleLat			LToeLat			LToeTip			RToeTip			RToeLat			RHeel			LHeel			T10		
		X1	Y1	Z1	X2	Y2	Z2	X3	Y3	Z3	X4	Y4	Z4	X5	Y5	Z5	X6	Y6	Z6	X7	Y7	Z7	X8	Y8	Z8	X9	Y9	Z9	X10	Y10	Z10	X11	Y11	Z11	X12	Y12	Z12	X13	Y13	Z13	X14	Y14	Z14	X15	Y15	Z15	X16	Y16	Z16	X17	Y17	Z17	X18	Y18	Z18	X19	Y19	Z19	X20	Y20	Z20	X21	Y21	Z21	X22	Y22	Z22	X23	Y23	Z23	X24	Y24	Z24	X25	Y25	Z25	X26	Y26	Z26
2908	29.07	1185.5933	1361.1201	-460.15192	1174.5953	1372.0569	-724.75183	1151.5186	1426.5793	-587.11652	1210.4102	1236.4907	-605.4682	804.65521	1019.6866	-576.33856	981.37335	962.7439	-462.86099	971.73511	946.71356	-723.53583	915.51001	905.46906	-405.52179	864.19128	887.95184	-772.32819	1056.166	479.07837	-474.30606	1022.0746	473.78174	-590.70483	732.96924	445.67661	-618.79498	740.08527	451.30228	-735.45074	695.22833	359.36661	-691.12299	1097.8716	401.7948	-534.03815	829.6936	93.700409	-484.21677	849.39819	96.535637	-571.14288	392.9556	170.00908	-629.70355	352.54181	169.29601	-709.99542	428.48993	32.562325	-738.36389	491.59088	27.815573	-666.20593	1032.8062	37.802696	-510.5574	960.44031	34.895008	-438.78265	735.42017	21.131796	-523.1944	252.82484	164.33163	-659.22626	921.67572	1200.2379	-584.83447
2909	29.08	1187.7676	1364.392	-459.34329	1175.4238	1375.0748	-723.7113	1152.8068	1429.9606	-586.21033	1212.145	1239.8442	-604.57996	806.56818	1022.4865	-574.71173	983.18896	965.80103	-460.71564	973.35809	950.16333	-721.85107	916.612	907.41602	-404.36761	867.34546	890.48694	-770.38867	1048.4579	477.51675	-473.59647	1013.8531	472.95337	-589.60602	745.50403	443.74329	-618.17023	752.6059	449.95374	-734.52643	706.6012	360.16592	-691.30469	1087.2388	399.1788	-533.65259	819.46173	93.171341	-484.48413	838.86981	96.134697	-571.13184	398.51614	176.34778	-630.9231	358.19003	177.50473	-711.05072	423.5708	33.489639	-739.03796	484.09631	25.630325	-667.03949	1023.3003	38.172779	-510.52545	949.90527	34.925011	-438.86642	725.04724	20.647467	-523.03015	258.36029	180.97125	-660.33093	923.61432	1203.1801	-583.02942
2910	29.09	1189.3658	1367.8866	-459.09515	1176.109	1378.3236	-722.72284	1153.7667	1433.4384	-585.41632	1213.5334	1243.3103	-604.03375	808.29065	1025.3927	-573.06787	984.74945	969.04755	-458.62643	975.18561	954.08319	-719.93634	917.73749	909.65356	-403.52975	870.65698	892.7431	-768.3689	1040.1542	476.20239	-473.06439	1004.903	472.07874	-588.78851	758.98993	441.83463	-617.30017	765.42731	448.8696	-734.3902	719.56659	358.95654	-691.4715	1077.416	396.91623	-533.30267	808.63672	92.935974	-484.42053	828.11829	95.644791	-571.42163	405.49384	182.50806	-632.04718	365.47421	186.27824	-712.1626	418.84058	35.353493	-739.48621	478.21027	22.555357	-667.39563	1012.6992	38.147167	-510.73276	939.47986	34.960686	-438.99295	713.7627	19.763983	-523.01007	266.43262	198.42238	-661.23145	925.03436	1206.1449	-581.29541
2911	29.1	1191.1857	1371.0996	-458.43283	1176.5291	1381.9023	-721.99298	1154.3311	1436.9508	-584.73035	1214.7924	1247.022	-603.60553	809.72235	1028.5236	-571.42444	986.10681	972.23224	-456.71133	976.65009	957.97247	-718.24866	919.34241	912.10791	-402.77844	874.05371	894.76746	-766.4137	1031.59	475.31528	-472.38864	994.41473	472.19904	-587.50366	773.02173	440.20468	-616.32208	779.0766	448.04037	-733.5213	733.45685	357.03305	-691.23712	1066.6836	394.7092	-533.85748	798.07703	92.699829	-484.51358	817.55444	95.347351	-571.58789	413.83298	189.032	-632.79749	374.58554	195.28802	-713.21777	414.63498	38.762676	-739.50293	471.76511	19.42355	-667.74573	1002.1979	38.296284	-510.75763	929.04285	34.972477	-439.0704	703.59265	19.41036	-523.26917	277.728	216.752	-661.83966	926.29767	1209.0358	-579.59613
2912	29.11	1192.7161	1374.635	-458.01022	1176.735	1385.6393	-721.54028	1154.7627	1440.4806	-584.12079	1215.9414	1251.0398	-603.50067	810.84631	1031.9419	-569.80438	987.24878	975.57062	-454.91357	977.95349	961.92114	-716.69055	921.37262	914.63531	-402.04648	877.34003	896.71924	-764.33862	1022.4435	474.78101	-471.82111	984.12451	472.4805	-587.29596	787.4657	439.64914	-614.9035	793.34344	447.75229	-731.74854	748.53442	355.19345	-690.51776	1056.1162	393.50677	-533.63605	787.55316	92.295761	-484.59695	807.08411	95.23069	-571.62158	423.31146	196.04225	-633.1557	385.68042	204.38258	-714.06732	411.45154	43.965836	-738.90381	466.14102	16.159254	-668.1308	991.55664	38.377041	-511.01102	918.79102	34.996868	-439.16913	693.28558	19.182718	-523.32794	291.61935	235.47905	-661.80743	927.23065	1211.9525	-577.99731
2913	29.12	1193.4691	1378.5872	-458.00461	1176.7141	1389.5227	-721.41589	1154.9633	1444.2577	-583.50525	1216.8282	1255.1633	-603.48285	811.91846	1035.2622	-568.23022	988.10693	978.87659	-453.31302	979.03979	965.76886	-715.08759	923.3017	917.38501	-401.51596	880.13745	898.90717	-762.16437	1012.6967	474.85349	-470.77765	973.90417	473.2959	-586.82013	801.93945	439.97568	-613.02002	807.16669	448.03485	-730.45947	764.37885	354.50775	-690.07275	1045.8281	392.76416	-533.58069	777.09778	92.371147	-484.32236	796.54767	95.36528	-571.45667	434.38956	202.99506	-633.276	398.1073	213.24225	-714.30713	409.70038	50.370998	-737.98938	461.073	12.493461	-668.95801	981.39099	38.673302	-510.97333	908.51123	34.813927	-438.99963	683.0462	19.022432	-523.32355	307.94623	253.52403	-660.98517	927.9472	1215.0433	-576.44806
2914	29.13	1195.0121	1382.2809	-457.38651	1176.5137	1393.4606	-721.74646	1155.454	1447.9166	-583.22278	1217.6371	1259.3114	-603.55188	812.69324	1038.9977	-566.82513	988.68866	982.23346	-451.72375	979.47784	969.5495	-713.84119	924.7146	920.36945	-401.25351	882.3772	901.5777	-760.23358	1002.4302	475.16611	-469.81839	963.57233	474.76877	-586.4151	817.21094	441.14893	-611.47137	822.21411	449.66611	-729.97906	779.95142	355.59348	-689.33899	1036.3071	393.30624	-532.26788	766.7951	92.276573	-484.13516	786.40332	95.390549	-571.10992	446.35135	210.2491	-632.91718	410.00043	222.20831	-713.95435	410.19861	57.714699	-736.89807	455.85321	8.5091753	-668.815	970.62646	38.391163	-510.83368	898.4248	34.789078	-438.94614	672.84491	18.929493	-523.323	324.40036	268.99454	-658.72552	928.5191	1218.3533	-574.94403
